<?xml version="1.0" encoding="UTF-8"?><svg id="Layer_1" xmlns="http://www.w3.org/2000/svg" viewBox="0 0 3611.705 4404.623"><defs><style>.cls-1{fill:#665e5b;}.cls-2{fill:#42352f;}</style></defs><rect class="cls-2" x="0" width="3611.704" height="4404.623"/><polygon class="cls-1" points="732.525 924.324 732.525 891.586 720.536 891.586 720.536 901.961 349.359 901.961 349.359 891.586 337.371 891.586 337.371 924.324 349.359 924.324 349.359 913.949 528.953 913.949 528.953 1034.754 349.359 1034.754 349.359 1024.38 337.371 1024.38 337.371 1057.118 349.359 1057.118 349.359 1046.743 528.953 1046.743 528.953 1167.548 349.359 1167.548 349.359 1157.174 337.371 1157.174 337.371 1189.911 349.359 1189.911 349.359 1179.537 528.953 1179.537 528.953 1300.342 349.359 1300.342 349.359 1289.968 337.371 1289.968 337.371 1322.705 349.359 1322.705 349.359 1312.331 528.953 1312.331 528.953 1433.136 349.359 1433.136 349.359 1422.762 337.371 1422.762 337.371 1455.499 349.359 1455.499 349.359 1445.125 528.953 1445.125 528.953 1565.93 349.359 1565.93 349.359 1555.555 337.371 1555.555 337.371 1588.293 349.359 1588.293 349.359 1577.918 528.953 1577.918 528.953 1698.724 349.359 1698.724 349.359 1688.349 337.371 1688.349 337.371 1721.087 349.359 1721.087 349.359 1710.712 528.953 1710.712 528.953 1831.517 349.359 1831.517 349.359 1821.143 337.371 1821.143 337.371 1853.881 349.359 1853.881 349.359 1843.506 528.953 1843.506 528.953 1964.311 349.359 1964.311 349.359 1953.937 337.371 1953.937 337.371 1986.674 349.359 1986.674 349.359 1976.3 528.953 1976.3 528.953 2097.105 349.359 2097.105 349.359 2086.731 337.371 2086.731 337.371 2119.468 349.359 2119.468 349.359 2109.094 528.953 2109.094 528.953 2229.899 349.359 2229.899 349.359 2219.525 337.371 2219.525 337.371 2252.262 349.359 2252.262 349.359 2241.888 528.953 2241.888 528.953 2362.693 349.359 2362.693 349.359 2352.319 337.371 2352.319 337.371 2385.056 349.359 2385.056 349.359 2374.681 720.536 2374.681 720.536 2385.056 732.525 2385.056 732.525 2352.319 720.536 2352.319 720.536 2362.693 540.942 2362.693 540.942 2241.888 720.536 2241.888 720.536 2252.262 732.525 2252.262 732.525 2219.525 720.536 2219.525 720.536 2229.899 540.942 2229.899 540.942 2109.094 720.536 2109.094 720.536 2119.468 732.525 2119.468 732.525 2086.731 720.536 2086.731 720.536 2097.105 540.942 2097.105 540.942 1976.3 720.536 1976.3 720.536 1986.674 732.525 1986.674 732.525 1953.937 720.536 1953.937 720.536 1964.311 540.942 1964.311 540.942 1843.506 720.536 1843.506 720.536 1853.881 732.525 1853.881 732.525 1821.143 720.536 1821.143 720.536 1831.517 540.942 1831.517 540.942 1710.712 720.536 1710.712 720.536 1721.087 732.525 1721.087 732.525 1688.349 720.536 1688.349 720.536 1698.724 540.942 1698.724 540.942 1577.918 720.536 1577.918 720.536 1588.293 732.525 1588.293 732.525 1555.555 720.536 1555.555 720.536 1565.93 540.942 1565.93 540.942 1445.125 720.536 1445.125 720.536 1455.499 732.525 1455.499 732.525 1422.762 720.536 1422.762 720.536 1433.136 540.942 1433.136 540.942 1312.331 720.536 1312.331 720.536 1322.705 732.525 1322.705 732.525 1289.968 720.536 1289.968 720.536 1300.342 540.942 1300.342 540.942 1179.537 720.536 1179.537 720.536 1189.911 732.525 1189.911 732.525 1157.174 720.536 1157.174 720.536 1167.548 540.942 1167.548 540.942 1046.743 720.536 1046.743 720.536 1057.118 732.525 1057.118 732.525 1024.38 720.536 1024.38 720.536 1034.754 540.942 1034.754 540.942 913.949 720.536 913.949 720.536 924.324 732.525 924.324"/><polygon class="cls-1" points="1749.919 924.324 1749.919 891.586 1737.931 891.586 1737.931 901.961 1366.754 901.961 1366.754 891.586 1354.765 891.586 1354.765 924.324 1366.754 924.324 1366.754 913.949 1546.348 913.949 1546.348 1034.754 1366.754 1034.754 1366.754 1024.38 1354.765 1024.38 1354.765 1057.118 1366.754 1057.118 1366.754 1046.743 1546.348 1046.743 1546.348 1167.548 1366.754 1167.548 1366.754 1157.174 1354.765 1157.174 1354.765 1189.911 1366.754 1189.911 1366.754 1179.537 1546.348 1179.537 1546.348 1300.342 1366.754 1300.342 1366.754 1289.968 1354.765 1289.968 1354.765 1322.705 1366.754 1322.705 1366.754 1312.331 1546.348 1312.331 1546.348 1433.136 1366.754 1433.136 1366.754 1422.762 1354.765 1422.762 1354.765 1455.499 1366.754 1455.499 1366.754 1445.125 1546.348 1445.125 1546.348 1565.93 1366.754 1565.93 1366.754 1555.555 1354.765 1555.555 1354.765 1588.293 1366.754 1588.293 1366.754 1577.918 1546.348 1577.918 1546.348 1698.724 1366.754 1698.724 1366.754 1688.349 1354.765 1688.349 1354.765 1721.087 1366.754 1721.087 1366.754 1710.712 1546.348 1710.712 1546.348 1831.517 1366.754 1831.517 1366.754 1821.143 1354.765 1821.143 1354.765 1853.881 1366.754 1853.881 1366.754 1843.506 1546.348 1843.506 1546.348 1964.311 1366.754 1964.311 1366.754 1953.937 1354.765 1953.937 1354.765 1986.674 1366.754 1986.674 1366.754 1976.3 1546.348 1976.3 1546.348 2097.105 1366.754 2097.105 1366.754 2086.731 1354.765 2086.731 1354.765 2119.468 1366.754 2119.468 1366.754 2109.094 1546.348 2109.094 1546.348 2229.899 1366.754 2229.899 1366.754 2219.525 1354.765 2219.525 1354.765 2252.262 1366.754 2252.262 1366.754 2241.888 1546.348 2241.888 1546.348 2362.693 1366.754 2362.693 1366.754 2352.319 1354.765 2352.319 1354.765 2385.056 1366.754 2385.056 1366.754 2374.681 1737.931 2374.681 1737.931 2385.056 1749.919 2385.056 1749.919 2352.319 1737.931 2352.319 1737.931 2362.693 1558.336 2362.693 1558.336 2241.888 1737.931 2241.888 1737.931 2252.262 1749.919 2252.262 1749.919 2219.525 1737.931 2219.525 1737.931 2229.899 1558.336 2229.899 1558.336 2109.094 1737.931 2109.094 1737.931 2119.468 1749.919 2119.468 1749.919 2086.731 1737.931 2086.731 1737.931 2097.105 1558.336 2097.105 1558.336 1976.3 1737.931 1976.3 1737.931 1986.674 1749.919 1986.674 1749.919 1953.937 1737.931 1953.937 1737.931 1964.311 1558.336 1964.311 1558.336 1843.506 1737.931 1843.506 1737.931 1853.881 1749.919 1853.881 1749.919 1821.143 1737.931 1821.143 1737.931 1831.517 1558.336 1831.517 1558.336 1710.712 1737.931 1710.712 1737.931 1721.087 1749.919 1721.087 1749.919 1688.349 1737.931 1688.349 1737.931 1698.724 1558.336 1698.724 1558.336 1577.918 1737.931 1577.918 1737.931 1588.293 1749.919 1588.293 1749.919 1555.555 1737.931 1555.555 1737.931 1565.93 1558.336 1565.93 1558.336 1445.125 1737.931 1445.125 1737.931 1455.499 1749.919 1455.499 1749.919 1422.762 1737.931 1422.762 1737.931 1433.136 1558.336 1433.136 1558.336 1312.331 1737.931 1312.331 1737.931 1322.705 1749.919 1322.705 1749.919 1289.968 1737.931 1289.968 1737.931 1300.342 1558.336 1300.342 1558.336 1179.537 1737.931 1179.537 1737.931 1189.911 1749.919 1189.911 1749.919 1157.174 1737.931 1157.174 1737.931 1167.548 1558.336 1167.548 1558.336 1046.743 1737.931 1046.743 1737.931 1057.118 1749.919 1057.118 1749.919 1024.38 1737.931 1024.38 1737.931 1034.754 1558.336 1034.754 1558.336 913.949 1737.931 913.949 1737.931 924.324 1749.919 924.324"/><rect class="cls-1" x="1037.996" y="891.586" width="11.988" height="55.792"/><rect class="cls-1" x="1037.996" y="1005.937" width="11.988" height="55.792"/><rect class="cls-1" x="1037.996" y="1120.287" width="11.988" height="55.792"/><rect class="cls-1" x="1037.996" y="1234.637" width="11.988" height="55.792"/><rect class="cls-1" x="1037.996" y="1348.987" width="11.988" height="55.792"/><rect class="cls-1" x="1037.996" y="1463.338" width="11.988" height="55.792"/><rect class="cls-1" x="1037.996" y="1577.688" width="11.988" height="55.792"/><rect class="cls-1" x="1037.996" y="1692.038" width="11.988" height="55.792"/><rect class="cls-1" x="1037.996" y="1806.388" width="11.988" height="55.792"/><rect class="cls-1" x="1037.996" y="1920.739" width="11.988" height="55.792"/><rect class="cls-1" x="1037.996" y="2035.089" width="11.988" height="55.792"/><rect class="cls-1" x="1037.996" y="2149.439" width="11.988" height="55.792"/><rect class="cls-1" x="1037.996" y="2263.789" width="11.988" height="55.792"/><rect class="cls-1" x="1623.119" y="2592.777" width="55.792" height="11.988"/><rect class="cls-1" x="1508.769" y="2592.777" width="55.792" height="11.988"/><rect class="cls-1" x="1394.419" y="2592.777" width="55.792" height="11.988"/><rect class="cls-1" x="1280.069" y="2592.777" width="55.792" height="11.988"/><rect class="cls-1" x="1165.718" y="2592.777" width="55.792" height="11.988"/><rect class="cls-1" x="1051.368" y="2592.777" width="55.792" height="11.988"/><rect class="cls-1" x="937.018" y="2592.777" width="55.792" height="11.988"/><rect class="cls-1" x="822.668" y="2592.777" width="55.792" height="11.988"/><rect class="cls-1" x="708.317" y="2592.777" width="55.792" height="11.988"/><rect class="cls-1" x="593.967" y="2592.777" width="55.792" height="11.988"/><rect class="cls-1" x="479.617" y="2592.777" width="55.792" height="11.988"/><rect class="cls-1" x="365.267" y="2592.777" width="55.792" height="11.988"/><rect class="cls-1" x="250.916" y="2592.777" width="55.792" height="11.988"/><polygon class="cls-1" points="891.063 1039.787 891.063 958.598 879.074 958.598 879.074 1039.84 862.091 1035.523 885.068 1094.85 907.278 1035.523 891.063 1039.787"/><polygon class="cls-1" points="1195.535 1013.661 1195.535 1094.85 1207.524 1094.85 1207.524 1013.608 1224.507 1017.925 1201.53 958.598 1179.321 1017.925 1195.535 1013.661"/><path class="cls-1" d="m891.063,2304.748v-40.301c0-.078.012-.153.012-.231v-25.441h-.012v-15.216h-11.988v39.926c-.124,5.376-4.512,9.699-9.918,9.699l-30.927-.048h-9.427l4.317-16.983-59.327,22.978,59.327,22.209-4.264-16.215h9.375l31.889.048c3.209,0,6.237-.742,8.956-2.032v21.661l-16.983-4.317,22.978,59.327,22.209-59.327-16.215,4.264Z"/><polygon class="cls-1" points="2775.716 924.324 2775.716 891.586 2763.728 891.586 2763.728 901.961 2392.551 901.961 2392.551 891.586 2380.563 891.586 2380.563 924.324 2392.551 924.324 2392.551 913.949 2572.145 913.949 2572.145 1034.754 2392.551 1034.754 2392.551 1024.38 2380.563 1024.38 2380.563 1057.118 2392.551 1057.118 2392.551 1046.743 2572.145 1046.743 2572.145 1167.548 2392.551 1167.548 2392.551 1157.174 2380.563 1157.174 2380.563 1189.911 2392.551 1189.911 2392.551 1179.537 2572.145 1179.537 2572.145 1300.342 2392.551 1300.342 2392.551 1289.968 2380.563 1289.968 2380.563 1322.705 2392.551 1322.705 2392.551 1312.331 2572.145 1312.331 2572.145 1433.136 2392.551 1433.136 2392.551 1422.762 2380.563 1422.762 2380.563 1455.499 2392.551 1455.499 2392.551 1445.125 2572.145 1445.125 2572.145 1565.93 2392.551 1565.93 2392.551 1555.555 2380.563 1555.555 2380.563 1588.293 2392.551 1588.293 2392.551 1577.918 2572.145 1577.918 2572.145 1698.724 2392.551 1698.724 2392.551 1688.349 2380.563 1688.349 2380.563 1721.087 2392.551 1721.087 2392.551 1710.712 2572.145 1710.712 2572.145 1831.517 2392.551 1831.517 2392.551 1821.143 2380.563 1821.143 2380.563 1853.881 2392.551 1853.881 2392.551 1843.506 2572.145 1843.506 2572.145 1964.311 2392.551 1964.311 2392.551 1953.937 2380.563 1953.937 2380.563 1986.674 2392.551 1986.674 2392.551 1976.3 2572.145 1976.3 2572.145 2097.105 2392.551 2097.105 2392.551 2086.731 2380.563 2086.731 2380.563 2119.468 2392.551 2119.468 2392.551 2109.094 2572.145 2109.094 2572.145 2229.899 2392.551 2229.899 2392.551 2219.525 2380.563 2219.525 2380.563 2252.262 2392.551 2252.262 2392.551 2241.888 2572.145 2241.888 2572.145 2362.693 2392.551 2362.693 2392.551 2352.319 2380.563 2352.319 2380.563 2385.056 2392.551 2385.056 2392.551 2374.681 2763.728 2374.681 2763.728 2385.056 2775.716 2385.056 2775.716 2352.319 2763.728 2352.319 2763.728 2362.693 2584.134 2362.693 2584.134 2241.888 2763.728 2241.888 2763.728 2252.262 2775.716 2252.262 2775.716 2219.525 2763.728 2219.525 2763.728 2229.899 2584.134 2229.899 2584.134 2109.094 2763.728 2109.094 2763.728 2119.468 2775.716 2119.468 2775.716 2086.731 2763.728 2086.731 2763.728 2097.105 2584.134 2097.105 2584.134 1976.3 2763.728 1976.3 2763.728 1986.674 2775.716 1986.674 2775.716 1953.937 2763.728 1953.937 2763.728 1964.311 2584.134 1964.311 2584.134 1843.506 2763.728 1843.506 2763.728 1853.881 2775.716 1853.881 2775.716 1821.143 2763.728 1821.143 2763.728 1831.517 2584.134 1831.517 2584.134 1710.712 2763.728 1710.712 2763.728 1721.087 2775.716 1721.087 2775.716 1688.349 2763.728 1688.349 2763.728 1698.724 2584.134 1698.724 2584.134 1577.918 2763.728 1577.918 2763.728 1588.293 2775.716 1588.293 2775.716 1555.555 2763.728 1555.555 2763.728 1565.93 2584.134 1565.93 2584.134 1445.125 2763.728 1445.125 2763.728 1455.499 2775.716 1455.499 2775.716 1422.762 2763.728 1422.762 2763.728 1433.136 2584.134 1433.136 2584.134 1312.331 2763.728 1312.331 2763.728 1322.705 2775.716 1322.705 2775.716 1289.968 2763.728 1289.968 2763.728 1300.342 2584.134 1300.342 2584.134 1179.537 2763.728 1179.537 2763.728 1189.911 2775.716 1189.911 2775.716 1157.174 2763.728 1157.174 2763.728 1167.548 2584.134 1167.548 2584.134 1046.743 2763.728 1046.743 2763.728 1057.118 2775.716 1057.118 2775.716 1024.38 2763.728 1024.38 2763.728 1034.754 2584.134 1034.754 2584.134 913.949 2763.728 913.949 2763.728 924.324 2775.716 924.324"/><rect class="cls-1" x="2063.794" y="891.586" width="11.988" height="55.792"/><rect class="cls-1" x="2063.794" y="1005.937" width="11.988" height="55.792"/><rect class="cls-1" x="2063.794" y="1120.287" width="11.988" height="55.792"/><rect class="cls-1" x="2063.794" y="1234.637" width="11.988" height="55.792"/><rect class="cls-1" x="2063.794" y="1348.987" width="11.988" height="55.792"/><rect class="cls-1" x="2063.794" y="1463.338" width="11.988" height="55.792"/><rect class="cls-1" x="2063.794" y="1577.688" width="11.988" height="55.792"/><rect class="cls-1" x="2063.794" y="1692.038" width="11.988" height="55.792"/><rect class="cls-1" x="2063.794" y="1806.388" width="11.988" height="55.792"/><rect class="cls-1" x="2063.794" y="1920.739" width="11.988" height="55.792"/><rect class="cls-1" x="2063.794" y="2035.089" width="11.988" height="55.792"/><rect class="cls-1" x="2063.794" y="2149.439" width="11.988" height="55.792"/><rect class="cls-1" x="2063.794" y="2263.789" width="11.988" height="55.792"/><polygon class="cls-1" points="1916.86 1039.787 1916.86 958.598 1904.872 958.598 1904.872 1039.84 1887.888 1035.523 1910.866 1094.85 1933.075 1035.523 1916.86 1039.787"/><polygon class="cls-1" points="2221.333 1013.661 2221.333 1094.85 2233.321 1094.85 2233.321 1013.608 2250.305 1017.925 2227.327 958.598 2205.118 1017.925 2221.333 1013.661"/><polygon class="cls-1" points="1916.86 1655.707 1916.86 1574.518 1904.872 1574.518 1904.872 1655.76 1887.888 1651.443 1910.866 1710.77 1933.075 1651.443 1916.86 1655.707"/><polygon class="cls-1" points="228.914 2486.714 310.103 2486.714 310.103 2474.726 228.861 2474.726 233.178 2457.743 173.851 2480.72 233.178 2502.929 228.914 2486.714"/><polygon class="cls-1" points="2221.333 1629.581 2221.333 1710.77 2233.321 1710.77 2233.321 1629.528 2250.305 1633.845 2227.327 1574.518 2205.118 1633.845 2221.333 1629.581"/><polygon class="cls-1" points="3057.723 1655.707 3057.723 1574.518 3045.735 1574.518 3045.735 1655.76 3028.751 1651.443 3051.729 1710.77 3073.938 1651.443 3057.723 1655.707"/><polygon class="cls-1" points="3362.196 1629.581 3362.196 1710.77 3374.184 1710.77 3374.184 1629.528 3391.168 1633.845 3368.19 1574.518 3345.981 1633.845 3362.196 1629.581"/><path class="cls-1" d="m1916.86,2304.748v-40.301c0-.078.012-.153.012-.231v-25.441h-.012v-15.216h-11.988v39.926c-.124,5.376-4.512,9.699-9.918,9.699l-30.927-.048h-9.427l4.317-16.983-59.327,22.978,59.327,22.209-4.264-16.215h9.375l31.889.048c3.209,0,6.237-.742,8.956-2.032v21.661l-16.983-4.317,22.978,59.327,22.209-59.327-16.215,4.264Z"/><rect class="cls-1" x="3203.965" y="891.586" width="11.988" height="55.792"/><rect class="cls-1" x="3203.965" y="1005.937" width="11.988" height="55.792"/><rect class="cls-1" x="3203.965" y="1120.287" width="11.988" height="55.792"/><rect class="cls-1" x="3203.965" y="1234.637" width="11.988" height="55.792"/><rect class="cls-1" x="3203.965" y="1348.987" width="11.988" height="55.792"/><rect class="cls-1" x="3203.965" y="1463.338" width="11.988" height="55.792"/><rect class="cls-1" x="3203.965" y="1577.688" width="11.988" height="55.792"/><rect class="cls-1" x="3203.965" y="1692.038" width="11.988" height="55.792"/><rect class="cls-1" x="3203.965" y="1806.388" width="11.988" height="55.792"/><rect class="cls-1" x="3203.965" y="1920.739" width="11.988" height="55.792"/><rect class="cls-1" x="3203.965" y="2035.089" width="11.988" height="55.792"/><rect class="cls-1" x="3203.965" y="2149.439" width="11.988" height="55.792"/><rect class="cls-1" x="3203.965" y="2263.789" width="11.988" height="55.792"/><polygon class="cls-1" points="3057.032 1039.787 3057.032 958.598 3045.043 958.598 3045.043 1039.84 3028.06 1035.523 3051.037 1094.85 3073.247 1035.523 3057.032 1039.787"/><polygon class="cls-1" points="3361.504 1013.661 3361.504 1094.85 3373.493 1094.85 3373.493 1013.608 3390.476 1017.925 3367.499 958.598 3345.289 1017.925 3361.504 1013.661"/><path class="cls-1" d="m3057.032,2304.748v-40.301c0-.078.012-.153.012-.231v-25.441h-.012v-15.216h-11.988v39.926c-.124,5.376-4.512,9.699-9.918,9.699l-30.927-.048h-9.427l4.317-16.983-59.327,22.978,59.327,22.209-4.264-16.215h9.375l31.889.048c3.209,0,6.237-.742,8.956-2.032v21.661l-16.983-4.317,22.978,59.327,22.209-59.327-16.215,4.264Z"/><path class="cls-1" d="m3356.664,2486.714h40.301c.078,0,.153.012.231.012h25.441v-.012h15.216v-11.988h-39.926c-5.376-.124-9.699-4.512-9.699-9.918l.048-30.927v-9.427l16.983,4.317-22.978-59.327-22.209,59.327,16.215-4.264v9.375l-.048,31.889c0,3.209.742,6.237,2.032,8.956h-21.661l4.317-16.983-59.327,22.978,59.327,22.209-4.264-16.215Z"/><path class="cls-1" d="m2202.253,2486.714h40.301c.078,0,.153.012.231.012h25.441v-.012h15.216v-11.988h-39.926c-5.376-.124-9.699-4.512-9.699-9.918l.048-30.927v-9.427l16.983,4.317-22.978-59.327-22.209,59.327,16.215-4.264v9.375l-.048,31.889c0,3.209.742,6.237,2.032,8.956h-21.661l4.317-16.983-59.327,22.978,59.327,22.209-4.264-16.215Z"/><path class="cls-1" d="m1184.093,2486.714h40.301c.078,0,.153.012.231.012h25.441v-.012h15.216v-11.988h-39.926c-5.376-.124-9.699-4.512-9.699-9.918l.048-30.927v-9.427l16.983,4.317-22.978-59.327-22.209,59.327,16.215-4.264v9.375l-.048,31.889c0,3.209.742,6.237,2.032,8.956h-21.661l4.317-16.983-59.327,22.978,59.327,22.209-4.264-16.215Z"/><polygon class="cls-1" points="2288.671 4273.218 2288.671 4305.956 2300.659 4305.956 2300.659 4295.581 2671.836 4295.581 2671.836 4305.956 2683.825 4305.956 2683.825 4273.218 2671.836 4273.218 2671.836 4283.593 2492.242 4283.593 2492.242 4162.787 2671.836 4162.787 2671.836 4173.162 2683.825 4173.162 2683.825 4140.424 2671.836 4140.424 2671.836 4150.799 2492.242 4150.799 2492.242 4029.994 2671.836 4029.994 2671.836 4040.368 2683.825 4040.368 2683.825 4007.631 2671.836 4007.631 2671.836 4018.005 2492.242 4018.005 2492.242 3897.2 2671.836 3897.2 2671.836 3907.574 2683.825 3907.574 2683.825 3874.837 2671.836 3874.837 2671.836 3885.211 2492.242 3885.211 2492.242 3764.406 2671.836 3764.406 2671.836 3774.78 2683.825 3774.78 2683.825 3742.043 2671.836 3742.043 2671.836 3752.417 2492.242 3752.417 2492.242 3631.612 2671.836 3631.612 2671.836 3641.987 2683.825 3641.987 2683.825 3609.249 2671.836 3609.249 2671.836 3619.624 2492.242 3619.624 2492.242 3498.818 2671.836 3498.818 2671.836 3509.193 2683.825 3509.193 2683.825 3476.455 2671.836 3476.455 2671.836 3486.83 2492.242 3486.83 2492.242 3366.024 2671.836 3366.024 2671.836 3376.399 2683.825 3376.399 2683.825 3343.661 2671.836 3343.661 2671.836 3354.036 2492.242 3354.036 2492.242 3233.231 2671.836 3233.231 2671.836 3243.605 2683.825 3243.605 2683.825 3210.868 2671.836 3210.868 2671.836 3221.242 2492.242 3221.242 2492.242 3100.437 2671.836 3100.437 2671.836 3110.811 2683.825 3110.811 2683.825 3078.074 2671.836 3078.074 2671.836 3088.448 2492.242 3088.448 2492.242 2967.643 2671.836 2967.643 2671.836 2978.017 2683.825 2978.017 2683.825 2945.28 2671.836 2945.28 2671.836 2955.654 2492.242 2955.654 2492.242 2834.849 2671.836 2834.849 2671.836 2845.223 2683.825 2845.223 2683.825 2812.486 2671.836 2812.486 2671.836 2822.861 2300.659 2822.861 2300.659 2812.486 2288.671 2812.486 2288.671 2845.223 2300.659 2845.223 2300.659 2834.849 2480.253 2834.849 2480.253 2955.654 2300.659 2955.654 2300.659 2945.28 2288.671 2945.28 2288.671 2978.017 2300.659 2978.017 2300.659 2967.643 2480.253 2967.643 2480.253 3088.448 2300.659 3088.448 2300.659 3078.074 2288.671 3078.074 2288.671 3110.811 2300.659 3110.811 2300.659 3100.437 2480.253 3100.437 2480.253 3221.242 2300.659 3221.242 2300.659 3210.868 2288.671 3210.868 2288.671 3243.605 2300.659 3243.605 2300.659 3233.231 2480.253 3233.231 2480.253 3354.036 2300.659 3354.036 2300.659 3343.661 2288.671 3343.661 2288.671 3376.399 2300.659 3376.399 2300.659 3366.024 2480.253 3366.024 2480.253 3486.83 2300.659 3486.83 2300.659 3476.455 2288.671 3476.455 2288.671 3509.193 2300.659 3509.193 2300.659 3498.818 2480.253 3498.818 2480.253 3619.624 2300.659 3619.624 2300.659 3609.249 2288.671 3609.249 2288.671 3641.987 2300.659 3641.987 2300.659 3631.612 2480.253 3631.612 2480.253 3752.417 2300.659 3752.417 2300.659 3742.043 2288.671 3742.043 2288.671 3774.78 2300.659 3774.78 2300.659 3764.406 2480.253 3764.406 2480.253 3885.211 2300.659 3885.211 2300.659 3874.837 2288.671 3874.837 2288.671 3907.574 2300.659 3907.574 2300.659 3897.2 2480.253 3897.2 2480.253 4018.005 2300.659 4018.005 2300.659 4007.631 2288.671 4007.631 2288.671 4040.368 2300.659 4040.368 2300.659 4029.994 2480.253 4029.994 2480.253 4150.799 2300.659 4150.799 2300.659 4140.424 2288.671 4140.424 2288.671 4173.162 2300.659 4173.162 2300.659 4162.787 2480.253 4162.787 2480.253 4283.593 2300.659 4283.593 2300.659 4273.218 2288.671 4273.218"/><polygon class="cls-1" points="1271.276 4273.218 1271.276 4305.956 1283.265 4305.956 1283.265 4295.581 1654.442 4295.581 1654.442 4305.956 1666.43 4305.956 1666.43 4273.218 1654.442 4273.218 1654.442 4283.593 1474.847 4283.593 1474.847 4162.787 1654.442 4162.787 1654.442 4173.162 1666.43 4173.162 1666.43 4140.424 1654.442 4140.424 1654.442 4150.799 1474.847 4150.799 1474.847 4029.994 1654.442 4029.994 1654.442 4040.368 1666.43 4040.368 1666.43 4007.631 1654.442 4007.631 1654.442 4018.005 1474.847 4018.005 1474.847 3897.2 1654.442 3897.2 1654.442 3907.574 1666.43 3907.574 1666.43 3874.837 1654.442 3874.837 1654.442 3885.211 1474.847 3885.211 1474.847 3764.406 1654.442 3764.406 1654.442 3774.78 1666.43 3774.78 1666.43 3742.043 1654.442 3742.043 1654.442 3752.417 1474.847 3752.417 1474.847 3631.612 1654.442 3631.612 1654.442 3641.987 1666.43 3641.987 1666.43 3609.249 1654.442 3609.249 1654.442 3619.624 1474.847 3619.624 1474.847 3498.818 1654.442 3498.818 1654.442 3509.193 1666.43 3509.193 1666.43 3476.455 1654.442 3476.455 1654.442 3486.83 1474.847 3486.83 1474.847 3366.024 1654.442 3366.024 1654.442 3376.399 1666.43 3376.399 1666.43 3343.661 1654.442 3343.661 1654.442 3354.036 1474.847 3354.036 1474.847 3233.231 1654.442 3233.231 1654.442 3243.605 1666.43 3243.605 1666.43 3210.868 1654.442 3210.868 1654.442 3221.242 1474.847 3221.242 1474.847 3100.437 1654.442 3100.437 1654.442 3110.811 1666.43 3110.811 1666.43 3078.074 1654.442 3078.074 1654.442 3088.448 1474.847 3088.448 1474.847 2967.643 1654.442 2967.643 1654.442 2978.017 1666.43 2978.017 1666.43 2945.28 1654.442 2945.28 1654.442 2955.654 1474.847 2955.654 1474.847 2834.849 1654.442 2834.849 1654.442 2845.223 1666.43 2845.223 1666.43 2812.486 1654.442 2812.486 1654.442 2822.861 1283.265 2822.861 1283.265 2812.486 1271.276 2812.486 1271.276 2845.223 1283.265 2845.223 1283.265 2834.849 1462.859 2834.849 1462.859 2955.654 1283.265 2955.654 1283.265 2945.28 1271.276 2945.28 1271.276 2978.017 1283.265 2978.017 1283.265 2967.643 1462.859 2967.643 1462.859 3088.448 1283.265 3088.448 1283.265 3078.074 1271.276 3078.074 1271.276 3110.811 1283.265 3110.811 1283.265 3100.437 1462.859 3100.437 1462.859 3221.242 1283.265 3221.242 1283.265 3210.868 1271.276 3210.868 1271.276 3243.605 1283.265 3243.605 1283.265 3233.231 1462.859 3233.231 1462.859 3354.036 1283.265 3354.036 1283.265 3343.661 1271.276 3343.661 1271.276 3376.399 1283.265 3376.399 1283.265 3366.024 1462.859 3366.024 1462.859 3486.83 1283.265 3486.83 1283.265 3476.455 1271.276 3476.455 1271.276 3509.193 1283.265 3509.193 1283.265 3498.818 1462.859 3498.818 1462.859 3619.624 1283.265 3619.624 1283.265 3609.249 1271.276 3609.249 1271.276 3641.987 1283.265 3641.987 1283.265 3631.612 1462.859 3631.612 1462.859 3752.417 1283.265 3752.417 1283.265 3742.043 1271.276 3742.043 1271.276 3774.78 1283.265 3774.78 1283.265 3764.406 1462.859 3764.406 1462.859 3885.211 1283.265 3885.211 1283.265 3874.837 1271.276 3874.837 1271.276 3907.574 1283.265 3907.574 1283.265 3897.2 1462.859 3897.2 1462.859 4018.005 1283.265 4018.005 1283.265 4007.631 1271.276 4007.631 1271.276 4040.368 1283.265 4040.368 1283.265 4029.994 1462.859 4029.994 1462.859 4150.799 1283.265 4150.799 1283.265 4140.424 1271.276 4140.424 1271.276 4173.162 1283.265 4173.162 1283.265 4162.787 1462.859 4162.787 1462.859 4283.593 1283.265 4283.593 1283.265 4273.218 1271.276 4273.218"/><rect class="cls-1" x="1971.21" y="4250.164" width="11.988" height="55.792"/><rect class="cls-1" x="1971.21" y="4135.814" width="11.988" height="55.792"/><rect class="cls-1" x="1971.21" y="4021.463" width="11.988" height="55.792"/><rect class="cls-1" x="1971.21" y="3907.113" width="11.988" height="55.792"/><rect class="cls-1" x="1971.21" y="3792.763" width="11.988" height="55.792"/><rect class="cls-1" x="1971.21" y="3678.413" width="11.988" height="55.792"/><rect class="cls-1" x="1971.21" y="3564.062" width="11.988" height="55.792"/><rect class="cls-1" x="1971.21" y="3449.712" width="11.988" height="55.792"/><rect class="cls-1" x="1971.21" y="3335.362" width="11.988" height="55.792"/><rect class="cls-1" x="1971.21" y="3221.012" width="11.988" height="55.792"/><rect class="cls-1" x="1971.21" y="3106.661" width="11.988" height="55.792"/><rect class="cls-1" x="1971.21" y="2992.311" width="11.988" height="55.792"/><rect class="cls-1" x="1971.21" y="2877.961" width="11.988" height="55.792"/><polygon class="cls-1" points="2130.133 4157.755 2130.133 4238.944 2142.121 4238.944 2142.121 4157.702 2159.105 4162.019 2136.127 4102.692 2113.918 4162.019 2130.133 4157.755"/><polygon class="cls-1" points="1825.66 4183.881 1825.66 4102.692 1813.671 4102.692 1813.671 4183.934 1796.688 4179.617 1819.666 4238.944 1841.875 4179.617 1825.66 4183.881"/><path class="cls-1" d="m2130.133,2892.793v40.301c0,.078-.012.153-.012.231v25.441h.012v15.216h11.988v-39.926c.124-5.376,4.512-9.699,9.918-9.699l30.927.048h9.427l-4.317,16.983,59.327-22.978-59.327-22.209,4.264,16.215h-9.375l-31.889-.048c-3.209,0-6.237.742-8.956,2.032v-21.661l16.983,4.317-22.978-59.327-22.209,59.327,16.215-4.264Z"/><polygon class="cls-1" points="245.479 4273.218 245.479 4305.956 257.467 4305.956 257.467 4295.581 628.644 4295.581 628.644 4305.956 640.633 4305.956 640.633 4273.218 628.644 4273.218 628.644 4283.593 449.05 4283.593 449.05 4162.787 628.644 4162.787 628.644 4173.162 640.633 4173.162 640.633 4140.424 628.644 4140.424 628.644 4150.799 449.05 4150.799 449.05 4029.994 628.644 4029.994 628.644 4040.368 640.633 4040.368 640.633 4007.631 628.644 4007.631 628.644 4018.005 449.05 4018.005 449.05 3897.2 628.644 3897.2 628.644 3907.574 640.633 3907.574 640.633 3874.837 628.644 3874.837 628.644 3885.211 449.05 3885.211 449.05 3764.406 628.644 3764.406 628.644 3774.78 640.633 3774.78 640.633 3742.043 628.644 3742.043 628.644 3752.417 449.05 3752.417 449.05 3631.612 628.644 3631.612 628.644 3641.987 640.633 3641.987 640.633 3609.249 628.644 3609.249 628.644 3619.624 449.05 3619.624 449.05 3498.818 628.644 3498.818 628.644 3509.193 640.633 3509.193 640.633 3476.455 628.644 3476.455 628.644 3486.83 449.05 3486.83 449.05 3366.024 628.644 3366.024 628.644 3376.399 640.633 3376.399 640.633 3343.661 628.644 3343.661 628.644 3354.036 449.05 3354.036 449.05 3233.231 628.644 3233.231 628.644 3243.605 640.633 3243.605 640.633 3210.868 628.644 3210.868 628.644 3221.242 449.05 3221.242 449.05 3100.437 628.644 3100.437 628.644 3110.811 640.633 3110.811 640.633 3078.074 628.644 3078.074 628.644 3088.448 449.05 3088.448 449.05 2967.643 628.644 2967.643 628.644 2978.017 640.633 2978.017 640.633 2945.28 628.644 2945.28 628.644 2955.654 449.05 2955.654 449.05 2834.849 628.644 2834.849 628.644 2845.223 640.633 2845.223 640.633 2812.486 628.644 2812.486 628.644 2822.861 257.467 2822.861 257.467 2812.486 245.479 2812.486 245.479 2845.223 257.467 2845.223 257.467 2834.849 437.062 2834.849 437.062 2955.654 257.467 2955.654 257.467 2945.28 245.479 2945.28 245.479 2978.017 257.467 2978.017 257.467 2967.643 437.062 2967.643 437.062 3088.448 257.467 3088.448 257.467 3078.074 245.479 3078.074 245.479 3110.811 257.467 3110.811 257.467 3100.437 437.062 3100.437 437.062 3221.242 257.467 3221.242 257.467 3210.868 245.479 3210.868 245.479 3243.605 257.467 3243.605 257.467 3233.231 437.062 3233.231 437.062 3354.036 257.467 3354.036 257.467 3343.661 245.479 3343.661 245.479 3376.399 257.467 3376.399 257.467 3366.024 437.062 3366.024 437.062 3486.83 257.467 3486.83 257.467 3476.455 245.479 3476.455 245.479 3509.193 257.467 3509.193 257.467 3498.818 437.062 3498.818 437.062 3619.624 257.467 3619.624 257.467 3609.249 245.479 3609.249 245.479 3641.987 257.467 3641.987 257.467 3631.612 437.062 3631.612 437.062 3752.417 257.467 3752.417 257.467 3742.043 245.479 3742.043 245.479 3774.78 257.467 3774.78 257.467 3764.406 437.062 3764.406 437.062 3885.211 257.467 3885.211 257.467 3874.837 245.479 3874.837 245.479 3907.574 257.467 3907.574 257.467 3897.2 437.062 3897.2 437.062 4018.005 257.467 4018.005 257.467 4007.631 245.479 4007.631 245.479 4040.368 257.467 4040.368 257.467 4029.994 437.062 4029.994 437.062 4150.799 257.467 4150.799 257.467 4140.424 245.479 4140.424 245.479 4173.162 257.467 4173.162 257.467 4162.787 437.062 4162.787 437.062 4283.593 257.467 4283.593 257.467 4273.218 245.479 4273.218"/><rect class="cls-1" x="945.413" y="4250.164" width="11.988" height="55.792"/><rect class="cls-1" x="945.413" y="4135.814" width="11.988" height="55.792"/><rect class="cls-1" x="945.413" y="4021.463" width="11.988" height="55.792"/><rect class="cls-1" x="945.413" y="3907.113" width="11.988" height="55.792"/><rect class="cls-1" x="945.413" y="3792.763" width="11.988" height="55.792"/><rect class="cls-1" x="945.413" y="3678.413" width="11.988" height="55.792"/><rect class="cls-1" x="945.413" y="3564.062" width="11.988" height="55.792"/><rect class="cls-1" x="945.413" y="3449.712" width="11.988" height="55.792"/><rect class="cls-1" x="945.413" y="3335.362" width="11.988" height="55.792"/><rect class="cls-1" x="945.413" y="3221.012" width="11.988" height="55.792"/><rect class="cls-1" x="945.413" y="3106.661" width="11.988" height="55.792"/><rect class="cls-1" x="945.413" y="2992.311" width="11.988" height="55.792"/><rect class="cls-1" x="945.413" y="2877.961" width="11.988" height="55.792"/><polygon class="cls-1" points="1104.335 4157.755 1104.335 4238.944 1116.324 4238.944 1116.324 4157.702 1133.307 4162.019 1110.33 4102.692 1088.12 4162.019 1104.335 4157.755"/><polygon class="cls-1" points="799.863 4183.881 799.863 4102.692 787.874 4102.692 787.874 4183.934 770.891 4179.617 793.868 4238.944 816.078 4179.617 799.863 4183.881"/><polygon class="cls-1" points="1104.335 3541.835 1104.335 3623.024 1116.324 3623.024 1116.324 3541.782 1133.307 3546.099 1110.33 3486.772 1088.12 3546.099 1104.335 3541.835"/><polygon class="cls-1" points="2792.282 2710.827 2711.092 2710.827 2711.092 2722.816 2792.334 2722.816 2788.017 2739.799 2847.344 2716.822 2788.017 2694.613 2792.282 2710.827"/><polygon class="cls-1" points="799.863 3567.961 799.863 3486.772 787.874 3486.772 787.874 3568.014 770.891 3563.697 793.868 3623.024 816.078 3563.697 799.863 3567.961"/><polygon class="cls-1" points="3319.891 3541.835 3319.891 3623.024 3331.879 3623.024 3331.879 3541.782 3348.863 3546.099 3325.885 3486.772 3303.676 3546.099 3319.891 3541.835"/><polygon class="cls-1" points="3015.418 3567.961 3015.418 3486.772 3003.43 3486.772 3003.43 3568.014 2986.446 3563.697 3009.424 3623.024 3031.633 3563.697 3015.418 3567.961"/><path class="cls-1" d="m1104.335,2892.793v40.301c0,.078-.012.153-.012.231v25.441h.012v15.216h11.988v-39.926c.124-5.376,4.512-9.699,9.918-9.699l30.927.048h9.427l-4.317,16.983,59.327-22.978-59.327-22.209,4.264,16.215h-9.375l-31.889-.048c-3.209,0-6.237.742-8.956,2.032v-21.661l16.983,4.317-22.978-59.327-22.209,59.327,16.215-4.264Z"/><rect class="cls-1" x="3161.66" y="4250.164" width="11.988" height="55.792"/><rect class="cls-1" x="3161.66" y="4135.814" width="11.988" height="55.792"/><rect class="cls-1" x="3161.66" y="4021.463" width="11.988" height="55.792"/><rect class="cls-1" x="3161.66" y="3907.113" width="11.988" height="55.792"/><rect class="cls-1" x="3161.66" y="3792.763" width="11.988" height="55.792"/><rect class="cls-1" x="3161.66" y="3678.413" width="11.988" height="55.792"/><rect class="cls-1" x="3161.66" y="3564.062" width="11.988" height="55.792"/><rect class="cls-1" x="3161.66" y="3449.712" width="11.988" height="55.792"/><rect class="cls-1" x="3161.66" y="3335.362" width="11.988" height="55.792"/><rect class="cls-1" x="3161.66" y="3221.012" width="11.988" height="55.792"/><rect class="cls-1" x="3161.66" y="3106.661" width="11.988" height="55.792"/><rect class="cls-1" x="3161.66" y="2992.311" width="11.988" height="55.792"/><rect class="cls-1" x="3161.66" y="2877.961" width="11.988" height="55.792"/><polygon class="cls-1" points="3320.583 4157.755 3320.583 4238.944 3332.571 4238.944 3332.571 4157.702 3349.555 4162.019 3326.577 4102.692 3304.368 4162.019 3320.583 4157.755"/><polygon class="cls-1" points="3016.11 4183.881 3016.11 4102.692 3004.121 4102.692 3004.121 4183.934 2987.138 4179.617 3010.116 4238.944 3032.325 4179.617 3016.11 4183.881"/><path class="cls-1" d="m3320.583,2892.793v40.301c0,.078-.012.153-.012.231v25.441h.012v15.216h11.988v-39.926c.124-5.376,4.512-9.699,9.918-9.699l30.927.048h9.427l-4.317,16.983,59.327-22.978-59.327-22.209,4.264,16.215h-9.375l-31.889-.048c-3.209,0-6.237.742-8.956,2.032v-21.661l16.983,4.317-22.978-59.327-22.209,59.327,16.215-4.264Z"/><path class="cls-1" d="m3020.95,2710.827h-40.301c-.078,0-.153-.012-.231-.012h-25.441v.012h-15.216v11.988h39.926c5.376.124,9.699,4.512,9.699,9.918l-.048,30.927v9.427l-16.983-4.317,22.978,59.327,22.209-59.327-16.215,4.264v-9.375l.048-31.889c0-3.209-.742-6.237-2.032-8.956h21.661l-4.317,16.983,59.327-22.978-59.327-22.209,4.264,16.215Z"/><path class="cls-1" d="m818.943,2710.827h-40.301c-.078,0-.153-.012-.231-.012h-25.441v.012h-15.216v11.988h39.926c5.376.124,9.699,4.512,9.699,9.918l-.048,30.927v9.427l-16.983-4.317,22.978,59.327,22.209-59.327-16.215,4.264v-9.375l.048-31.889c0-3.209-.742-6.237-2.032-8.956h21.661l-4.317,16.983,59.327-22.978-59.327-22.209,4.264,16.215Z"/><path class="cls-1" d="m1837.102,2710.827h-40.301c-.078,0-.153-.012-.231-.012h-25.441v.012h-15.216v11.988h39.926c5.376.124,9.699,4.512,9.699,9.918l-.048,30.927v9.427l-16.983-4.317,22.978,59.327,22.209-59.327-16.215,4.264v-9.375l.048-31.889c0-3.209-.742-6.237-2.032-8.956h21.661l-4.317,16.983,59.327-22.978-59.327-22.209,4.264,16.215Z"/></svg>